<svg xmlns="http://www.w3.org/2000/svg" viewBox="0 0 32 32"><g id="Name_Card" data-name="Name Card"><path d="M27,7H5A2,2,0,0,0,3,9V23a2,2,0,0,0,2,2H27a2,2,0,0,0,2-2V9A2,2,0,0,0,27,7ZM5,23V9H27V23Z" id="id_101" style="fill: rgb(194, 202, 204);"></path><path d="M14,10.05H8A2,2,0,0,0,6.05,12v8A2,2,0,0,0,8,22h6A2,2,0,0,0,16,20V12A2,2,0,0,0,14,10.05ZM8.32,20A4,4,0,0,1,11,19,4,4,0,0,1,13.72,20Zm5.73-2.11a6,6,0,0,0-6.08,0L8,12l6.05.05Z" id="id_102" style="fill: rgb(192, 201, 204);"></path><circle cx="11" cy="15" r="2" id="id_103" style="fill: rgb(183, 199, 204);"></circle><path d="M24,11H19a1,1,0,0,0,0,2h5a1,1,0,0,0,0-2Z" id="id_104" style="fill: rgb(190, 201, 204);"></path><path d="M24,15H19a1,1,0,0,0,0,2h5a1,1,0,0,0,0-2Z" id="id_105" style="fill: rgb(188, 200, 204);"></path><path d="M24,19H19a1,1,0,0,0,0,2h5a1,1,0,0,0,0-2Z" id="id_106" style="fill: rgb(186, 200, 204);"></path></g></svg>