<svg id="Layer_1" data-name="Layer 1" xmlns="http://www.w3.org/2000/svg" viewBox="0 0 512 512"><defs><style>.cls-1{fill:#00cf66;}.cls-2{fill:#00b157;}</style></defs><title>Voucher</title><path class="cls-1" d="M483.255,203.177A21.232,21.232,0,0,0,501.333,182.1V117.333a32.035,32.035,0,0,0-32-32h-288v5.332a10.667,10.667,0,1,1-21.333,0V85.333H42.667a32.035,32.035,0,0,0-32,32V182.1a21.232,21.232,0,0,0,18.078,21.076,53.341,53.341,0,0,1,0,105.646A21.232,21.232,0,0,0,10.667,329.9v64.768a32.035,32.035,0,0,0,32,32H160v-5.332a10.667,10.667,0,1,1,21.333,0v5.332h288a32.035,32.035,0,0,0,32-32V329.9a21.232,21.232,0,0,0-18.078-21.076,53.341,53.341,0,0,1,0-105.646ZM181.333,375.111a10.667,10.667,0,1,1-21.333,0V350.223a10.667,10.667,0,1,1,21.333,0Zm0-71.111A10.667,10.667,0,1,1,160,304V279.11a10.667,10.667,0,0,1,21.333,0Zm0-71.113a10.667,10.667,0,1,1-21.333,0V208a10.667,10.667,0,1,1,21.333,0Zm0-71.111a10.667,10.667,0,1,1-21.333,0V136.888a10.667,10.667,0,1,1,21.333,0Z" id="id_101" style="fill: rgb(65, 90, 119);"></path><path class="cls-2" d="M160,375.111V350.223a10.667,10.667,0,0,1,10.667-10.667V314.667A10.667,10.667,0,0,1,160,304V279.11a10.667,10.667,0,0,1,10.667-10.667V243.554A10.667,10.667,0,0,1,160,232.887V208a10.667,10.667,0,0,1,10.667-10.667v-24.89A10.667,10.667,0,0,1,160,161.776V136.888a10.667,10.667,0,0,1,10.667-10.667V101.332A10.667,10.667,0,0,1,160,90.666V85.333H42.667a32.035,32.035,0,0,0-32,32V182.1a21.232,21.232,0,0,0,18.078,21.076,53.341,53.341,0,0,1,0,105.646A21.232,21.232,0,0,0,10.667,329.9v64.768a32.035,32.035,0,0,0,32,32H160v-5.332a10.667,10.667,0,0,1,10.667-10.667v-24.89A10.667,10.667,0,0,1,160,375.111Z" id="id_102" style="fill: rgb(27, 38, 59);"></path></svg>